<svg id="Layer_1" data-name="Layer 1" xmlns="http://www.w3.org/2000/svg" viewBox="0 0 543.17 134.38"><defs><style>.cls-1{fill:#fc9b00;}</style></defs><path d="M543.13,73.07l-42.87.16c-.29,0-.58.27-.87.41.93,6.63,5.68,11,13.73,12,6.74.84,12.61-2,18.62-5.8L539,90.59a32.56,32.56,0,0,1-17.09,8.06c-10,1.63-19.58.89-28.16-5.12-8.16-5.72-12.33-13.64-12.71-23.61-.25-6.57.35-12.89,3.61-18.81,6.21-11.3,18.28-17.46,31.85-16,11.86,1.24,21.55,9.63,25.18,21.82.51,1.74,1,3.49,1.5,5.23ZM526.22,60.63c-1.18-7.78-7-12.57-14.34-12.15-7,.39-13.44,5.81-12.68,12.15Z" transform="translate(0.04 0)"/><path d="M60.88,120c0-3.16.1-6.32,0-9.47-.12-3,.8-4.29,4-5,11.44-2.43,18.23-10.82,17.88-21.34A20.7,20.7,0,0,0,65.1,64.28c-3.14-.43-4.32-1.57-4.25-4.72.15-6.81,0-13.63.08-20.45,0-3.62,1-4.39,4.58-4,27.15,2.76,45.23,24.49,45.79,48.71a50,50,0,0,1-41,49.91c-.49.09-1,.21-1.47.28-7.27,1-8,.36-8-7C60.87,124.65,60.88,122.32,60.88,120Z" transform="translate(0.04 0)"/><path class="cls-1" d="M49.8,27.73c-1.8.38-3.1.61-4.38.94C35.79,31.15,29.3,38.08,28.61,48A20.69,20.69,0,0,0,45.18,69.83c5,1.06,5,.92,5,5.91,0,6.14,0,12.29,0,18.44,0,4.57-.9,5.31-5.23,4.82C18.11,95.94-1.36,73.59,0,46.54,1.26,22.47,19,3.79,42.62.12A17.1,17.1,0,0,1,45.1,0c4.73,0,5,.22,5.08,5.07.06,6.15,0,12.3,0,18.44A35.18,35.18,0,0,1,49.8,27.73Z" transform="translate(0.04 0)"/><path d="M299.33,73.08c1,7.11,5.4,11.15,13.5,12.43,6.79,1.06,12.62-1.86,18.88-5.67l7.17,10.65c-2.16,1.59-3.82,3.24-5.81,4.22-10.25,5-20.93,6.29-31.89,2.66-18.84-6.23-24.88-28-17.86-43.91,9.37-21.21,38.58-25,52.5-7.7a33.17,33.17,0,0,1,6.79,15.84c.31,2,.5,3.95.72,5.93.5,4.47-.4,5.5-5.23,5.53-10.8.06-21.6,0-32.4,0Zm26.48-12.55a13,13,0,0,0-13.76-12.07h-.11c-7.21.45-12.91,5.75-12.6,12.06Z" transform="translate(0.04 0)"/><path d="M369.9,42.4c3.14-1.83,5.62-3.48,8.28-4.78a26.35,26.35,0,0,1,18.44-2c8.54,2.11,13.59,7.83,13.8,16.65.34,14.28.08,28.58.16,42.88,0,3.1-1.45,4.09-4.29,4s-5.65,0-8.48,0c-4-.11-4.45-.49-4.48-4.75-.06-9,0-18,0-26.92,0-2-.13-4,0-6,.75-9.95-7.13-13-15.47-10.39a21.48,21.48,0,0,0-3.59,1.71,8,8,0,0,0-4.68,8c.22,10.8.09,21.61.07,32.41,0,5.79-.13,5.89-5.8,5.94h-8c-2.28,0-3.37-1.1-3.39-3.33V41c0-5.8.11-5.88,5.82-5.93h6.49c4.53.11,4.57.18,4.89,4.84C369.71,40.54,369.79,41.19,369.9,42.4Z" transform="translate(0.04 0)"/><path d="M130,92.1l6.63-11.37c5.66,1.63,10.81,3.49,16.11,4.51a21.67,21.67,0,0,0,9.27-.52c4.06-1,4.72-5,1.32-7.46a23,23,0,0,0-6.78-2.91c-4.44-1.36-9.08-2.15-13.41-3.76-6.52-2.44-11.42-6.54-12.73-14s2-15.23,9-18.14a47.09,47.09,0,0,1,13.94-3.28A43.44,43.44,0,0,1,176.93,40c1.29.65,2.48,1.53,4.28,2.66l-6.54,11c-1.42-.6-2.47-1-3.46-1.49-4.8-2.44-9.78-4.21-15.26-3.8a12.08,12.08,0,0,0-5.24,1.27,5.4,5.4,0,0,0-2.47,3.8,5.29,5.29,0,0,0,2.44,3.75c1.65,1,3.76,1.17,5.68,1.7,4.62,1.28,9.42,2.15,13.83,3.95,6.09,2.47,10.55,6.84,12.26,13.5,2,7.68-1.1,15.57-8.29,18.93A42.23,42.23,0,0,1,160.35,99a51.94,51.94,0,0,1-26.21-4.57C132.84,93.84,131.64,93,130,92.1Z" transform="translate(0.04 0)"/><path d="M220.08,91.54l6.4-10.75c5.53,1.59,10.68,3.39,16,4.47,2.81.57,5.89,0,8.82-.28,2.23-.2,4-1.71,3.81-3.86a6.67,6.67,0,0,0-2.66-4.34A23.57,23.57,0,0,0,246,74.29C241.56,73,237,72.1,232.63,70.46,226.28,68,221.57,64,220.28,56.71c-1.34-7.53,1.88-15.27,8.87-18.21a47.73,47.73,0,0,1,13.92-3.32,44.14,44.14,0,0,1,24.07,5,18.58,18.58,0,0,1,2.15,1.26,14.42,14.42,0,0,1,1.52,1.61l-6.22,10.58c-1.39-.57-2.46-.9-3.43-1.41-5-2.55-10.1-4.33-15.75-3.84a13.81,13.81,0,0,0-5.23,1.38,4,4,0,0,0,.23,7.44c1.91.9,4.12,1.15,6.19,1.73,4.47,1.24,9.09,2.12,13.36,3.86,5.9,2.4,10.34,6.56,12.18,13,2.32,8.1-.83,16.2-8.46,19.7A41.6,41.6,0,0,1,250.32,99a53.53,53.53,0,0,1-26.69-4.7,13.94,13.94,0,0,1-2.2-1.15A9.08,9.08,0,0,1,220.08,91.54Z" transform="translate(0.04 0)"/><path d="M471,43,464.7,53.37c-4.46-1.56-8.53-3.47-12.82-4.33a31.27,31.27,0,0,0-10.26.17c-2.17.3-4.36,2-3.73,4.47a7,7,0,0,0,3.83,4c2.89,1.14,6.18,1.26,9.16,2.24,4.4,1.43,8.92,2.79,12.94,5a17.69,17.69,0,0,1,8.61,20,14.77,14.77,0,0,1-7.55,10,36.75,36.75,0,0,1-15.76,4.19,56.57,56.57,0,0,1-24.34-4.35,22.6,22.6,0,0,1-3.09-1.6c-.4-.24-.65-.71-1.35-1.51,1.54-2.73,3.19-5.57,4.75-8.44,1.18-2.17,2.71-2.4,5-1.63a90.15,90.15,0,0,0,13.4,3.8,18.82,18.82,0,0,0,8.75-.76c3.72-1.23,4.09-5.65.76-7.81a24.12,24.12,0,0,0-6.45-2.5c-4.77-1.43-9.73-2.31-14.35-4.1-11.51-4.48-15.71-16.93-9.34-26.55,2.17-3.29,5.35-5,8.8-6.21,13.23-4.55,25.85-2.57,38,3.95A10.22,10.22,0,0,1,471,43Z" transform="translate(0.04 0)"/><path d="M193.57,66.79V40.39c0-5,.28-5.25,5.43-5.31,2.66,0,5.31.06,8,0s3.88,1.29,3.81,4,0,5.65,0,8.47V93.39c0,5.64-.17,5.77-5.94,5.81-2.32,0-4.65.07-7,0-3.8-.15-4.24-.53-4.27-4.44C193.49,85.39,193.57,76.09,193.57,66.79Z" transform="translate(0.04 0)"/><path d="M201.81,28.28a8.3,8.3,0,0,1-8.23-8.37c0-.12,0-.24,0-.36a8.7,8.7,0,0,1,8.29-8.31,8.52,8.52,0,1,1,1.09,17,7.49,7.49,0,0,1-1.16,0Z" transform="translate(0.04 0)"/></svg>