<svg id="Layer_1" data-name="Layer 1" xmlns="http://www.w3.org/2000/svg" viewBox="0 0 468.41 78.18"><defs><style>.cls-1{fill:#93bc5e;}</style></defs><path class="cls-1" d="M313.51,58.24a30.06,30.06,0,0,0-2.91.81c-3.79,1.43-5.47.72-7.19-3.07-.54-1.2-1.16-2.36-1.7-3.55a7.73,7.73,0,0,0-4.46-4.08,12.2,12.2,0,0,1-3.34-2c-1.82-1.54-1.61-3.25.48-4.44a75.3,75.3,0,0,1,7.2-3.85,33.39,33.39,0,0,0,10.22-6.92,13,13,0,0,0,1.72-2.83L309,25.74c2.36-1.45,4.06-2.55,5.81-3.56a51.81,51.81,0,0,0,11.56-8.49A48.85,48.85,0,0,0,333.76,3l1.71-3,.86.13c.11,1.3.27,2.6.33,3.9.28,5.86.14,11.77.94,17.56.56,4.08,2.85,7.73,5.77,10.81a6,6,0,0,1,1.13,1.17c.47.9,1.3,2.09,1,2.78s-1.65,1.18-2.62,1.46a27,27,0,0,1-4,.51,16.7,16.7,0,0,0,0,3.74,36.35,36.35,0,0,0,7.55,15.06c2.64,3.21,2.09,5.47-1.87,6.73a10.27,10.27,0,0,1-4.78.7c-2.21-.42-3.77.44-5.5,1.41-3.27,1.83-6.69,2.12-9.94.08-1.32-.83-2.27-2.25-3.7-3.71-.79,2.49-1.55,4.92-2.34,7.33s-1.4,4.6-2.34,6.79c-.8,1.86-2.95,2.18-5.64,1.17-1.76-.66-1.86-2-1.37-3.46q1.67-5.11,3.38-10.23c.54-1.63,1.11-3.26,1.66-4.89Z" transform="translate(-0.04 -0.03)"/><path d="M148.87,27.38c1.33-.7,2.17-1.12,3-1.57,4.84-2.66,9.92-3.94,15.39-2.37,5,1.43,10.56,6.62,10.88,12.61.29,5.41.56,10.83.58,16.25,0,5.67-.26,11.33-.44,17-.08,2.74-.54,3.19-3.29,3.27-2,.05-3.94.09-5.9,0-2.78-.12-3.41-.77-3.42-3.61,0-7.64,0-15.28-.06-22.92a24,24,0,0,0-.47-4.86c-.77-3.66-3-5.92-6.12-6.41-2.94-.47-6.86,1.56-8.37,4.54a16.33,16.33,0,0,0-2,7.82c.13,7,0,14,0,21,0,4.36-.19,4.53-4.68,4.53-1.86,0-3.72,0-5.57,0-2.33-.11-2.75-.59-2.9-3V10.08c0-3.7.47-4.18,4.08-4.26,1.85,0,3.71-.06,5.56,0,2.68.12,3.49.9,3.53,3.62.06,4.8,0,9.6,0,14.4C148.69,24.8,148.78,25.84,148.87,27.38Z" transform="translate(-0.04 -0.03)"/><path d="M62.49,52.52c-.3,3.09,1.37,4.92,3.12,6.45,4.41,3.85,12,4.27,16.76.77,2.56-1.91,4.86-2.11,7.53-.57,1.22.7,2.54,1.24,3.79,1.92,2.2,1.19,2.44,2.06.93,4.08a18.73,18.73,0,0,1-8.82,6.54,31.05,31.05,0,0,1-21.13.22c-9-3.19-14.18-10-15.52-19.33a27.84,27.84,0,0,1,1.68-14.78c3-7.41,8.28-12.17,16-14.11,7.24-1.82,14.39-1.37,20.81,2.62S98.12,36.07,99,43.78a44,44,0,0,1,.53,4.86c0,2.94-.71,3.63-3.71,3.64H66.36C65.08,52.32,63.82,52.45,62.49,52.52ZM85.58,41c-2.11-5.74-7.15-7-12.26-6.94S64.5,37.17,63.48,41C66,41.85,82.58,41.89,85.58,41Z" transform="translate(-0.04 -0.03)"/><path d="M450.51,71.72a22.09,22.09,0,0,1-3.68.86c-2.94.09-5.89-.06-8.84.06a6.51,6.51,0,0,1-5.4-2.49c-5-5.6-10.12-11.12-15.2-16.66-.35-.38-.8-.66-1.81-1.49v5.22c.09,4,.31,8,.29,12.08,0,2.67-.69,3.23-3.36,3.29-2.4.06-4.8,0-7.2,0-1.76,0-2.65-.74-2.61-2.54v-62a2.21,2.21,0,0,1,2-2.43,2,2,0,0,1,.49,0c2.62,0,5.24-.06,7.86,0a2.68,2.68,0,0,1,2.86,2.48,2.94,2.94,0,0,1,0,.42c.07,1.75.06,3.5,0,5.24-.13,3.9-.48,7.8-.42,11.7.07,5.1.44,10.2.7,15.77a19.1,19.1,0,0,0,2-1.7c4.23-4.69,8.39-9.45,12.68-14.09a4.94,4.94,0,0,1,3-1.5c3.59-.18,7.2-.13,10.8-.05a14.2,14.2,0,0,1,3.06.92c-2.23,2.62-4,4.77-5.85,6.85q-6.18,6.94-12.44,13.83c-.95,1.06-1.18,2-.14,3.15,2.92,3.08,5.87,6.13,8.75,9.26C442,62.32,445.92,66.66,450.51,71.72Z" transform="translate(-0.04 -0.03)"/><path d="M375.48,61.35a13.16,13.16,0,0,0,10.58-3.68,2.61,2.61,0,0,1,3.55-.31c2.12,1.32,4.29,2.6,6.29,4.08,1.71,1.26,1.71,2.49.19,4.1a23.9,23.9,0,0,1-16.37,7.8,38.65,38.65,0,0,1-14.16-1.24c-5.58-1.73-9.56-5.26-12.83-10-5.64-8.15-5.08-22.68,1.56-29.62,4.81-5,10.2-8.46,17.34-9.33,6-.73,11.58-.25,16.85,2.37a42.81,42.81,0,0,1,8.15,5.87c1.58,1.34,1.44,2.91-.37,4.1a68.4,68.4,0,0,1-7.45,4c-1.26.63-2.22,0-3.14-1-5.81-6.14-18.8-3.68-22.57,3.66-4.58,8.94,2.2,19.52,10.56,19.15C374.21,61.33,374.75,61.35,375.48,61.35Z" transform="translate(-0.04 -0.03)"/><path d="M132.09,30.68c-1.3,3-3.73,5-6.14,7-1.12.94-2.31.82-3.56-.14a19.48,19.48,0,0,0-4.19-2.43,4.3,4.3,0,0,0-2.83-.13c-.94.33-2.18,1.09-2.36,1.88s.78,2,1.57,2.46c3.27,1.93,6.71,3.58,10,5.46,3.92,2.22,6.86,5.22,8,9.83,2.25,9.12-3.53,17.42-12.83,18.7-7.14,1-13.36-.55-18.84-5.24-2.39-2-2.51-3-.47-5.34l3-3.44c2.12-2.38,2.91-2.4,5.5-.67a41.24,41.24,0,0,0,5.4,3,5,5,0,0,0,4.7-.51c1.84-1.07,2.23-2.84.74-4.33a18.78,18.78,0,0,0-4-2.85c-2-1.15-4-2.12-6.07-3.18a18.28,18.28,0,0,1-8.37-8.43,13.32,13.32,0,0,1,6.36-17.5c8.45-4.19,17.87-1.46,23.85,4.91A3.89,3.89,0,0,1,132.09,30.68Z" transform="translate(-0.04 -0.03)"/><path d="M225.11,30.08c-.08-1.25-.11-2.51-.27-3.75a1.81,1.81,0,0,1,1.75-2.25A9.5,9.5,0,0,1,227.9,24c3.77-.13,4.06.15,4.06,4V69.58c-.14,2.51-.81,3.06-3.56,3-2.49,0-3-.55-3.21-3.06-.06-1-.09-1.94-.16-3.6-1.58,1.11-2.82,1.86-3.92,2.78-9.19,7.67-26.6,6.47-34.8-5.9a25.82,25.82,0,0,1,6.82-35.87,26.25,26.25,0,0,1,3.29-1.9c8.29-4.06,20.38-2.3,26.39,4.26a8.26,8.26,0,0,0,1.54,1.09Zm.15,18.27c.66-8.86-7.11-18.58-17.86-18.43a18.21,18.21,0,0,0-18.17,17.52C188.93,58.87,197,66.9,207.51,67a17.73,17.73,0,0,0,17.8-17.66c0-.33,0-.67,0-1Z" transform="translate(-0.04 -0.03)"/><path d="M17.66,35.32V68.53c0,3.79-.28,4-4.12,4.08H8.3c-3.42,0-3.8-.38-3.84-3.72V39.75c0-3.9,0-3.9-3.93-5-.11-1.1-.3-2.35-.37-3.6s0-2.59-.06-3.86c-.2-2.24,0-2.87,2.11-3.27,1.85-.34,2.3-1.32,2.26-2.94s0-3,0-4.58C4.28,8.23,9.1,4.16,17.53,4.38a5.55,5.55,0,0,1,1,.09c8.27,1.62,7,.89,7,9.37,0,1.89-.89,2.44-2.78,2.24a11.35,11.35,0,0,0-2.25-.28c-1.56.16-2.69.93-2.73,2.68s0,3.24,0,5.21c1.63.12,3,.21,4.37.33,2.32.21,2.8.67,2.87,3.06V33c0,1.66-.83,2.38-2.43,2.36S19.71,35.32,17.66,35.32Z" transform="translate(-0.04 -0.03)"/><path d="M277,53.68V39c0-1.84,0-3.44-2.41-3.93-.64-.13-1.38-1.36-1.5-2.16A40.08,40.08,0,0,1,273,28c-.06-2,.08-3.71,2.62-4.12,1.39-.22,1.27-1.55,1.34-2.64.19-2.83.38-5.65.61-8.47a8.09,8.09,0,0,1,4.37-6.51c4.65-2.71,9.46-1.95,14.2-.28a3.06,3.06,0,0,1,1.4,2.21,52.82,52.82,0,0,1,.29,6.16,1.64,1.64,0,0,1-2.12,1.8c-1.59-.22-3.55-1.21-4.56.4-.83,1.33-.75,3.27-1,4.95s.65,2.49,2.46,2.59c4.78.26,4.77.33,4.78,5v1c0,4.75,0,4.75-4.66,5.16-2.07.18-2.55.61-2.6,2.93-.07,3.93,0,7.86,0,11.78v19c0,3.22-.37,3.56-3.57,3.63H281c-3.72,0-4-.23-4-3.84V53.65Z" transform="translate(-0.04 -0.03)"/><path d="M39.7,27.56c3.42-4.06,8-5.67,11.82-4.4,2.66.88,3.12,1.84,2.08,4.35-.82,2-1.66,4-2.46,6.06A2.1,2.1,0,0,1,48.59,35c-3.48-.43-5.51.56-6.37,3.91a51.09,51.09,0,0,0-1.49,10.94c-.23,6.32-.06,12.65-.08,19,0,3.59-.17,3.75-3.62,3.78H30.16a2.15,2.15,0,0,1-2.42-1.82,2.25,2.25,0,0,1,0-.58c-.07-9.91-.19-19.82-.26-29.73v-13c0-2.89.42-3.35,3.43-3.45,1.52,0,3,0,4.58,0C38.72,24,38.72,24,39.7,27.56Z" transform="translate(-0.04 -0.03)"/><path d="M254.54,73.3c-4.71.61-8.79-1.49-12.47-4.66-1.94-1.68-1.9-2.4.23-4.86,1.71-2,2.41-2.11,4.27-.51,3.26,2.82,6.83,4.19,11.14,2.76,2.94-1,5.31-4.35,4.82-7.3a8,8,0,0,0-4-5.69c-2.33-1.4-4.75-2.66-7.09-4-1.21-.72-2.33-1.6-3.51-2.37a12.92,12.92,0,0,1-4.77-15.34,13.32,13.32,0,0,1,13.68-8.45c4.31.53,7.72,2.68,11.08,5.12,1.35,1,1.56,2,.4,3.26l-1.1,1.21c-1.75,1.87-2.23,1.79-4.34.36a22.92,22.92,0,0,0-5.44-2.84,6.51,6.51,0,0,0-8.1,4.37l-.05.17c-.8,2.69.76,4.48,2.36,6A34,34,0,0,0,257,44.21c2.9,1.9,6.09,3.46,8.65,5.74A13,13,0,0,1,269.15,56c2.43,8.89-5.42,17.72-12.61,17.27C256,73.27,255.43,73.3,254.54,73.3Z" transform="translate(-0.04 -0.03)"/><path d="M468.4,66.39c.46,3.46-2.21,6.94-7.4,7.41-3.52.32-7.39-3.37-7.45-6.76-.09-4.34,3.26-8.44,7-8.25C465.2,59,468.75,61.7,468.4,66.39Z" transform="translate(-0.04 -0.03)"/></svg>