<svg id="Layer_1" data-name="Layer 1" xmlns="http://www.w3.org/2000/svg" viewBox="0 0 419.66 138.11"><defs><style>.cls-1{fill:#527dbf;}.cls-2{fill:#ea4335;}.cls-3{fill:#f9bb17;}.cls-4{fill:#31a951;}</style></defs><path class="cls-1" d="M199.77,359l-10.4,10.36c-.73-.61-1.54-1.32-2.37-2a36.74,36.74,0,0,0-20.73-8.18,37.78,37.78,0,0,0-25.92,7.3,37.23,37.23,0,0,0-14,19.91,38.59,38.59,0,0,0,2.49,29.39c5.94,11.65,15.52,18.65,28.46,20.69a38.16,38.16,0,0,0,23.13-3.24c9.69-4.75,15.67-12.35,17.35-23.13.09-.61.17-1.23.27-1.94-.49,0-.87-.05-1.24-.05H164.39c-1.33,0-1.33,0-1.33-1.28,0-4.13,0-8.26,0-12.39,0-.74.19-1,1-1q23.73,0,47.46,0c.74,0,1,.26,1.1,1a57.64,57.64,0,0,1,.45,11.37,59.71,59.71,0,0,1-1.94,12,44,44,0,0,1-17,24.46,47.78,47.78,0,0,1-23.51,8.95,56.27,56.27,0,0,1-24.32-2.28,54.5,54.5,0,0,1-18.55-10.41A53.48,53.48,0,0,1,111,413.37a49.24,49.24,0,0,1-2.27-13.47c-.42-16.22,5.49-29.81,17.23-40.85a52.53,52.53,0,0,1,29.94-14.12C170,343.16,183,346,194.49,354.68c1.59,1.19,3,2.54,4.58,3.8A8.48,8.48,0,0,0,199.77,359Z" transform="translate(-108.75 -344.43)"/><path class="cls-1" d="M434.59,417.5c0,10.11,0,20.21,0,30.32A42.25,42.25,0,0,1,431.15,465a27.73,27.73,0,0,1-19.25,16.24c-8.24,2.14-16.39,1.87-24.22-1.79a33,33,0,0,1-16.18-16.55c-.24-.53-.12-.77.4-1,3.93-1.62,7.85-3.24,11.75-4.89.63-.27.86-.07,1.11.47a20.18,20.18,0,0,0,8.5,9.3,17.8,17.8,0,0,0,10.12,2.11,19.16,19.16,0,0,0,8.29-2.29c4.42-2.52,6.75-6.5,7.87-11.31a36.88,36.88,0,0,0,.68-9c0-.66,0-1.32,0-2a1.77,1.77,0,0,0-.22-.56,2.1,2.1,0,0,0-.56.28c-.85.78-1.62,1.66-2.52,2.37a22.29,22.29,0,0,1-13.24,5c-14.11.57-24.24-6-31.11-17.94a32,32,0,0,1-4.06-18,34.43,34.43,0,0,1,8.93-21.72,32.59,32.59,0,0,1,16-10.06c7.74-2.09,15.19-1.49,22.06,3a41.86,41.86,0,0,1,3.8,3.16,4.83,4.83,0,0,0,.66.4,2.59,2.59,0,0,0,.25-.79c0-1.34,0-2.69,0-4,0-.53.19-.73.73-.73,4.29,0,8.59,0,12.89,0,.75,0,.77.4.77.94q0,7.53,0,15V417.5Zm-30.81-21.32c-6.24,0-10.77,2-14.38,5.87a22.41,22.41,0,0,0-.83,29.17,17.81,17.81,0,0,0,16.62,6.6,16.71,16.71,0,0,0,12.94-8.75,23.16,23.16,0,0,0,.4-23.15C415.31,399.7,410,396.36,403.78,396.18Z" transform="translate(-108.75 -344.43)"/><path class="cls-2" d="M219,417c.14-20.26,15.74-34.57,34.85-34.5s34.57,14.51,34.52,34.62c0,19.59-15.3,34.58-34.89,34.46C234.61,451.5,219.07,437.15,219,417Zm54.14.29a23,23,0,0,0-2.74-11.18,19,19,0,0,0-30.5-4c-7.17,7.54-7.55,20.7-.84,28.77a18.7,18.7,0,0,0,24.52,4.13C270.16,430.93,272.93,424.62,273.11,417.33Z" transform="translate(-108.75 -344.43)"/><path class="cls-3" d="M293.72,417.06c.13-20,15.41-34.44,34.71-34.5C348,382.51,363,397.62,363,417.15a34,34,0,0,1-34.66,34.43C309.35,451.52,293.84,437.15,293.72,417.06Zm54.1.05a22,22,0,0,0-2.69-10.95,19,19,0,0,0-31.86-2.48A20.72,20.72,0,0,0,309,415.05c-.51,7,1.44,13.12,6.68,18a18.84,18.84,0,0,0,25.68-.27A21.05,21.05,0,0,0,347.82,417.11Z" transform="translate(-108.75 -344.43)"/><path class="cls-2" d="M516,428.38l11.88,7.91c-1,1.21-1.8,2.38-2.76,3.46a33.45,33.45,0,0,1-20.74,11.46c-19.15,2.79-36.19-9.3-39.17-28.28a35.87,35.87,0,0,1,4.93-25.46A30.48,30.48,0,0,1,491.67,383c12.95-2.12,23.16,2.5,30.76,13.08,2.69,3.74,4.34,8,6,12.36l-46,19a17.31,17.31,0,0,0,16.34,10.42C506.28,438,511.77,434.46,516,428.38ZM479.79,416l30.93-12.84a25.2,25.2,0,0,0-2.21-3,14.21,14.21,0,0,0-13.14-3.93c-6.91,1.24-11.7,5.33-14.32,11.87A20,20,0,0,0,479.79,416Z" transform="translate(-108.75 -344.43)"/><path class="cls-4" d="M443.53,398.79V349.56c0-1.23,0-1.23,1.21-1.23h12.57c1.07,0,1.08,0,1.08,1v99c0,1.06,0,1.06-1.05,1.06q-6.36,0-12.73,0c-1.07,0-1.08,0-1.08-1.11Z" transform="translate(-108.75 -344.43)"/></svg>