<svg id="Layer_1" data-name="Layer 1" xmlns="http://www.w3.org/2000/svg" viewBox="0 0 346.08 63.93"><defs><style>.cls-1{fill:#916332;}</style></defs><polygon class="cls-1" points="40.3 9.05 5.86 34.46 17.57 54.79 29.71 62.55 53.57 59.59 65.57 54.51 68.68 46.74 67.69 38.55 66.94 34.04 54 32.77 54.56 9.89 40.3 9.05"/><path d="M346.1,21.87l-4.57,1.21V48h-3.79c-1-2.91-.42-5.74-.53-8.5s0-5.39,0-8.09V23a16.35,16.35,0,0,1-3.38-.82,2.36,2.36,0,0,1-1.13-1.8,2.42,2.42,0,0,1,1.31-1.7,12.42,12.42,0,0,1,3.14-.52V9.92c2.13-1.63,2.13-1.63,4.34-.25v8.25l4.64,1.24Z" transform="translate(-0.05 -0.03)"/><path d="M16.55,56.54c-3.86,0-7.68.05-11.5,0s-5-1.28-5-5.09V5.22C.05,1.22,1.26,0,5.33,0H51.22c4.21,0,5.59,1.36,5.64,5.73.08,7.08,0,14.17,0,21.25v4.12c1.36,0,2.53.1,3.71.1A13.38,13.38,0,0,1,67.68,33a23,23,0,0,0,3.12,1.19c2.88,1.24,3.24,3.82.81,5.76-.77.61-1.61,1.14-2.49,1.77.83,1.13,1.52,2.07,2,2.77,0,2.45-2.09,2.82-3.25,4l.76,1.94c-.77,2.21-1.37,3.95-2.14,6.18a18.83,18.83,0,0,1-8,4.35,94.32,94.32,0,0,1-27.34,2.9C25.8,63.57,22.06,61.78,16.55,56.54ZM52.7,11c-1.3.34-2.16.5-3,.78A48.74,48.74,0,0,0,25.83,29.16c-4.4,6-7.14,12.72-6.7,20.39A9.71,9.71,0,0,0,24.4,58a17.35,17.35,0,0,0,8.71,2.22,124.75,124.75,0,0,0,13.11-.72c4.32-.55,8.59-1.58,12.84-2.56a6.86,6.86,0,0,0,4.53-2.67l-1.67-1c1.4-.72,3.69-.65,2.77-3.31l-3.6-.55c5.21-1.58,6.45-3.45,4.82-7L62.06,42,62,41.44l4.74-1.12c.86-3-.36-5.09-3.91-5.36A62.13,62.13,0,0,0,50.69,35c-4.88.6-9.66,1.93-14.49,2.9a8.63,8.63,0,0,1-1.76,0l-.07-.42,4.79-1.91v-.51l-3.95-.74a10.67,10.67,0,0,1,7.8-.78c3.51.8,6.57-.47,9.72-1.2Z" transform="translate(-0.05 -0.03)"/><path d="M169.76,48.19H167c-1.36-1.13-1.34-2.6-1.33-4.07V29.26c0-4.49-1.1-5.81-5.71-7.23-.5.14-1.15.29-1.78.49-3.57,1.13-5.06,2.83-5.2,6.52-.18,4.72-.08,9.45-.19,14.18a41.56,41.56,0,0,1-.53,4.75l-2.62.36c-1.46-1.08-1.54-2.41-1.54-3.78v-23a6.84,6.84,0,0,1,.45-2.61c.28-.63,1-1.49,1.53-1.49a3.87,3.87,0,0,1,2.13,1.2c.35.31.39,1,.71,1.87a10.13,10.13,0,0,1,8-3.12c3.2.19,5.28,2.18,7.39,4.53,2.24-2.26,4.52-4.08,7.77-4.44,6.82-.74,11.59,3.4,11.87,9.38s.1,12.15,0,18.23a12.93,12.93,0,0,1-.75,3l-2.84.19a6.56,6.56,0,0,1-1-1.86,35.43,35.43,0,0,1-.21-4.37V29.24c-.06-4.49-1.11-5.8-5.7-7.21a19.17,19.17,0,0,0-2.47.67c-2.68,1.13-4.47,3-4.52,6.09-.09,4.72-.07,9.45-.18,14.17A39.8,39.8,0,0,1,169.76,48.19Z" transform="translate(-0.05 -0.03)"/><path d="M303.16,35.46H283.47A10.42,10.42,0,0,0,288.54,44c3,2,6,1.33,8.86-.46,1.51-1,3-1.92,4.84-3.09l2.1,2.92a33.43,33.43,0,0,1-3.17,3.24c-4.08,3.1-12.2,3.45-16.57.22A14.82,14.82,0,0,1,278.72,37c-1-5.94.12-11.36,4.26-16,4.9-5.51,16.58-5,20,3.54C304.39,28.06,305,31.61,303.16,35.46Zm-19.51-4.64h15.59c.27-5.16-2.45-8.67-6.73-8.95-5.39-.3-8.57,2.88-8.86,9Z" transform="translate(-0.05 -0.03)"/><path d="M216.18,35.52H197c-.47,3.8,1.6,6.18,4,8.14,2.72,2.23,5.84,2,8.82.31,1.66-.93,3.23-2,5.19-3.28L217.36,43A9.68,9.68,0,0,1,212,48c-8.16,2.89-16.71.73-19.61-9a18.37,18.37,0,0,1,3-17.19c2.85-3.76,8.36-5.38,13.73-3.8a11.56,11.56,0,0,1,8,10.62C217.21,30.8,217.73,33.1,216.18,35.52ZM197,31h15.52c.7-5.24-3.86-9.32-7.64-9.14-4.84.23-8,3.5-7.88,9.14Z" transform="translate(-0.05 -0.03)"/><path d="M144.22,35.46H125c-.7,5.87,5.2,11,10.5,9.32a23.92,23.92,0,0,0,3.9-1.92c1.18-.63,2.31-1.34,3.38-2,2.42,1.5,2.71,2.55,1.15,4.21a11.58,11.58,0,0,1-6,3.52c-11.55,2.6-17.68-4.75-18.29-13.34-.32-4.46.24-8.7,2.89-12.54,5.13-7.43,15.86-6.73,20.24-.59C145.06,25.46,145.73,30.34,144.22,35.46ZM140.55,31c.08-3.8-1.18-6.67-4.33-8.31a7.29,7.29,0,0,0-7.91.5c-2.73,1.88-3.62,4.52-3.68,7.81Z" transform="translate(-0.05 -0.03)"/><path d="M96.87,48.19h-3.5a27.06,27.06,0,0,1-.63-4q-.08-15.69,0-31.39c0-1.81,0-3.67,2.2-4.45,2.19.4,2.47,2.07,2.52,3.8.06,2.58,0,5.16,0,8.11,1-.55,1.69-1,2.41-1.36,6.67-3.6,15.85.06,15.91,9.11q.06,8.44,0,16.88a18.66,18.66,0,0,1-.56,3.23h-3.46c-.1-1.3-.26-2.38-.27-3.47,0-3.71.06-7.43,0-11.14a46.56,46.56,0,0,0-.59-6.35c-.53-3.28-3-5.15-6.37-5.3a6.58,6.58,0,0,0-6.79,5.31,20.83,20.83,0,0,0-.21,3.7V44A36.2,36.2,0,0,1,96.87,48.19Z" transform="translate(-0.05 -0.03)"/><path d="M234.06,33.15a55.77,55.77,0,0,1,1.82-7.42c1.9-4.86,5.42-7.83,10.84-8.22a11.5,11.5,0,0,1,11.42,6.2,18.8,18.8,0,0,1,.42,18.93c-2.54,4.92-6.82,6.83-12.29,6.4-5.21-.41-8.33-3.51-10.35-7.94A20.43,20.43,0,0,1,234.06,33.15Zm21.45.93a15,15,0,0,0-1.85-8.38c-1.38-2.62-3.52-4.21-6.44-4.14A6.84,6.84,0,0,0,241,26a17,17,0,0,0,.4,14.94c1.31,2.72,3.45,4.28,6.34,4.23A6.9,6.9,0,0,0,254.12,41a13.58,13.58,0,0,0,1.35-6.87Z" transform="translate(-0.05 -0.03)"/><path d="M313.24,23v3.68l8.48,4.51A28.23,28.23,0,0,1,326.35,34,7.94,7.94,0,0,1,325,47.4a14.4,14.4,0,0,1-14.47-.35A9.24,9.24,0,0,1,308,44.89c-1.32-1.68-.81-3.19,1.53-4.65.73.55,1.51,1.17,2.31,1.76a12.48,12.48,0,0,0,8.47,2.7,4,4,0,0,0,3.95-3.06,3.66,3.66,0,0,0-1.83-4.33c-2-1.19-4.2-2.12-6.3-3.19-1.69-.87-3.39-1.74-5.05-2.68-4.34-2.45-3.8-10,.63-12.48,3.33-1.89,11.4-2.12,15.31,1.31,1.64,1.43,1.76,2,.54,4.24-1.67.73-3-.21-4.42-.9-2-1-4.12-1.92-6.44-1.61A23.09,23.09,0,0,0,313.24,23Z" transform="translate(-0.05 -0.03)"/><path d="M227.23,48.19h-2.95C223,47,223.06,45.49,223.06,44V23.23c-1.65-.95-4.11.23-4.63-2.38.29-2.62,2.58-2.27,4.66-2.74,0-1.6-.08-3.15,0-4.69.14-2.29,1-4.44,3.41-4.87s5.37-1.23,7.38,1.49c-.64,3.38-3.61,2-5.85,2.93-.08,1.64-.17,3.34-.27,5.18a32.22,32.22,0,0,1,3.65.46,2.12,2.12,0,0,1,1.77,2.18,1.93,1.93,0,0,1-2,1.87h0c-1,.1-2,.18-3.2.28-.07,1.09-.2,2.07-.2,3v17.2A50.29,50.29,0,0,1,227.23,48.19Z" transform="translate(-0.05 -0.03)"/><path d="M84.71,48.14c-1.11.13-1.55.22-2,.22a5.67,5.67,0,0,1-1-.18c-1.29-1.09-1.23-2.57-1.23-4V23c-.94-.19-1.79-.31-2.62-.53-1.11-.29-1.9-1.11-1.62-2.2A3.41,3.41,0,0,1,78,18.54a8,8,0,0,1,2.52-.35V12c0-1.71.38-3.14,2.31-3.64,2,.3,2.4,1.81,2.47,3.45.08,2,0,4,0,6.1,1.59.83,4,.07,4.48,2.57-.33,2.44-2.56,1.92-4.31,2.39-.05,1.07-.15,2.06-.15,3.05v17.9A34.58,34.58,0,0,1,84.71,48.14Z" transform="translate(-0.05 -0.03)"/><path d="M268.36,18.23l.43,3.87a38.87,38.87,0,0,1,4-3.7c2.54-1.79,4.27-1.15,5.88,2.23A25,25,0,0,1,276,22.81c-1,.66-2.23,1-3.31,1.65a6.26,6.26,0,0,0-3.61,5.32c-.21,4.38-.35,8.76-.49,13.13-.05,1.56,0,3.12,0,5l-3,.53c-.39-.45-.74-.67-.8-1a16.49,16.49,0,0,1-.51-3.27c-.05-7.43,0-14.85,0-22.28a13.33,13.33,0,0,1,.06-2C264.69,17.56,265.61,17.15,268.36,18.23Z" transform="translate(-0.05 -0.03)"/></svg>