<svg width="24" height="24" viewBox="0 0 24 24" fill="none" xmlns="http://www.w3.org/2000/svg">
<path d="M3.50626 4.4625L9.00001 20.3344C9.23439 21.0187 10.2094 21 10.425 20.3062L12.6375 13.125C12.6709 13.0076 12.7343 12.9009 12.8214 12.8154C12.9085 12.73 13.0164 12.6686 13.1344 12.6375L20.3063 10.425C21 10.2094 21.0188 9.23437 20.3344 9L4.46251 3.50625C4.32916 3.45938 4.18527 3.45115 4.04745 3.48251C3.90962 3.51387 3.78346 3.58354 3.68351 3.68349C3.58356 3.78344 3.51389 3.9096 3.48253 4.04743C3.45117 4.18526 3.4594 4.32914 3.50626 4.4625V4.4625Z" stroke="#707070" stroke-width="1.5" stroke-linecap="round" stroke-linejoin="round"/>
</svg>
