<svg width="24" height="24" viewBox="0 0 24 24" fill="none" xmlns="http://www.w3.org/2000/svg">
<path d="M12 0C5.37277 0 0 5.37277 0 12C0 18.6272 5.37277 24 12 24C18.6272 24 24 18.6272 24 12C24 5.37277 18.6272 0 12 0ZM8.76923 17.5385H6.46154V9.23077H8.76923V17.5385ZM7.60846 8.30769H7.59554C6.90692 8.30769 6.46154 7.79446 6.46154 7.15338C6.46154 6.49846 6.92077 6 7.62185 6C8.32385 6 8.75631 6.49846 8.76923 7.15338C8.76923 7.794 8.32385 8.30769 7.60846 8.30769ZM17.5385 17.5385H15.2308V13.3846C15.2308 12 14.5634 11.5385 13.8462 11.5385C13.1792 11.5385 12.4615 12 12.4615 13.3846V17.5385H10.1538V9.23077H12.4615V10.6154C12.6198 10.1626 13.3772 9.23077 14.7692 9.23077C16.6154 9.23077 17.5385 10.6154 17.5385 12.9231V17.5385Z" fill="#707070"/>
</svg>
