<svg width="24" height="24" viewBox="0 0 24 24" fill="none" xmlns="http://www.w3.org/2000/svg">
<path d="M15.6179 15.071C16.7745 15.3738 17.974 15.4512 19.1519 15.3038C18.7564 16.1576 18.2095 16.9368 17.5344 17.6022C16.5545 18.568 15.3386 19.2603 14.0079 19.61C12.6772 19.9596 11.278 19.9546 9.9499 19.5953C8.62174 19.2359 7.41091 18.5349 6.438 17.562C5.4651 16.5891 4.76407 15.3783 4.40475 14.0501C4.04543 12.722 4.04036 11.3228 4.39004 9.99212C4.73973 8.66139 5.43196 7.44551 6.39779 6.46558C7.06316 5.79049 7.84238 5.24362 8.69619 4.84807C8.54883 6.02598 8.62624 7.22554 8.92898 8.38214C9.34993 9.99039 10.1914 11.4576 11.3669 12.6331C12.5424 13.8086 14.0096 14.6501 15.6179 15.071Z" stroke="#707070" stroke-width="1.5" stroke-linecap="round" stroke-linejoin="round"/>
</svg>
