<svg width="24" height="24" viewBox="0 0 24 24" fill="none" xmlns="http://www.w3.org/2000/svg">
<path d="M12 0.959991C5.91261 0.959991 0.959971 5.91263 0.959971 12C0.959971 13.9008 1.45101 15.7699 2.38221 17.4192L0.977731 22.4304C0.931651 22.595 0.976291 22.7717 1.09533 22.8941C1.18701 22.9886 1.31181 23.04 1.43997 23.04C1.47837 23.04 1.51725 23.0352 1.55517 23.0261L6.78525 21.7306C8.38221 22.5878 10.1808 23.04 12 23.04C18.0873 23.04 23.04 18.0874 23.04 12C23.04 5.91263 18.0873 0.959991 12 0.959991ZM17.5536 15.8957C17.3174 16.5494 16.1846 17.1461 15.6403 17.2262C15.1517 17.2978 14.5334 17.3285 13.8547 17.1154C13.4433 16.9858 12.9153 16.8139 12.239 16.5254C9.39597 15.313 7.53933 12.4862 7.39725 12.2995C7.25565 12.1128 6.23997 10.7822 6.23997 9.40511C6.23997 8.02799 6.97197 7.35071 7.23213 7.07039C7.49229 6.79007 7.79901 6.71999 7.98813 6.71999C8.17725 6.71999 8.36589 6.72239 8.53149 6.73007C8.70573 6.73871 8.93949 6.66431 9.16941 7.21055C9.40557 7.77119 9.97245 9.14831 10.0425 9.28895C10.1136 9.42911 10.1606 9.59279 10.0665 9.77951C9.97245 9.96623 9.92541 10.0829 9.78333 10.2466C9.64125 10.4102 9.48573 10.6114 9.35805 10.7371C9.21597 10.8768 9.06861 11.028 9.23373 11.3083C9.39885 11.5886 9.96765 12.505 10.8105 13.247C11.8929 14.2003 12.8064 14.496 13.0896 14.6362C13.3728 14.7763 13.5384 14.7528 13.7035 14.5661C13.8686 14.3789 14.412 13.7486 14.6006 13.4688C14.7893 13.189 14.9784 13.235 15.2385 13.3286C15.4987 13.4218 16.8921 14.0986 17.1753 14.2387C17.4585 14.3789 17.6477 14.449 17.7187 14.5656C17.7897 14.6818 17.7897 15.2424 17.5536 15.8957Z" fill="#707070"/>
</svg>
