<svg width="24" height="24" viewBox="0 0 24 24" fill="none" xmlns="http://www.w3.org/2000/svg">
<path d="M12 0C5.38324 0 0 5.38324 0 12C0 17.1569 3.27004 21.5636 7.84507 23.2575C7.71329 22.0828 7.73396 20.1589 7.95139 19.2274C8.15501 18.3525 9.26682 13.6515 9.26682 13.6515C9.26682 13.6515 8.93118 12.9794 8.93118 11.9866C8.93118 10.4265 9.83506 9.26253 10.9607 9.26253C11.918 9.26253 12.3797 9.98129 12.3797 10.8425C12.3797 11.8054 11.7674 13.2438 11.4503 14.577C11.1859 15.694 12.0103 16.6047 13.1114 16.6047C15.1051 16.6047 16.6375 14.5023 16.6375 11.468C16.6375 8.78234 14.7081 6.90429 11.9526 6.90429C8.7612 6.90429 6.88789 9.29832 6.88789 11.7726C6.88789 12.7365 7.25894 13.7702 7.72272 14.3328C7.81418 14.4441 7.82755 14.5412 7.80039 14.6542C7.7154 15.0084 7.52643 15.7703 7.48889 15.9265C7.44013 16.1323 7.32622 16.175 7.11395 16.0762C5.71267 15.4239 4.83682 13.3759 4.83682 11.7303C4.83682 8.19214 7.40733 4.9421 12.2489 4.9421C16.1405 4.9421 19.1645 7.71454 19.1645 11.421C19.1645 15.2871 16.7264 18.3982 13.3435 18.3982C12.2067 18.3982 11.1384 17.8076 10.773 17.1099C10.773 17.1099 10.2104 19.2516 10.0736 19.7767C9.83757 20.6847 8.82705 22.5659 8.31977 23.4203C9.48025 23.7952 10.7164 24 12 24C18.617 24 24 18.617 24 12C24 5.38324 18.617 0 12 0Z" fill="#707070"/>
</svg>
