<svg width="24" height="24" viewBox="0 0 24 24" fill="none" xmlns="http://www.w3.org/2000/svg">
<path d="M12 0C5.38278 0 0 5.38278 0 12C0 18.6172 5.38278 24 12 24C18.6172 24 24 18.6172 24 12C24 5.38278 18.6172 0 12 0ZM17.8628 9.6647C17.868 9.78783 17.8711 9.91304 17.8711 10.0388C17.8711 13.8569 14.9635 18.2609 9.64748 18.2609C8.01548 18.2609 6.49565 17.7824 5.21739 16.9623C5.4433 16.9894 5.67235 17.0024 5.90661 17.0024C7.26104 17.0024 8.50748 16.5412 9.49565 15.7659C8.23096 15.743 7.16452 14.9056 6.79565 13.7588C6.97252 13.7927 7.15357 13.811 7.34035 13.811C7.60383 13.811 7.85948 13.776 8.10104 13.7092C6.78 13.4426 5.784 12.276 5.784 10.8751C5.784 10.8626 5.784 10.8506 5.784 10.8386C6.17374 11.0551 6.61878 11.1856 7.09304 11.2007C6.3167 10.6816 5.80748 9.79774 5.80748 8.79496C5.80748 8.26539 5.94939 7.76922 6.19826 7.34139C7.62417 9.08974 9.75391 10.2402 12.1555 10.3612C12.1059 10.1494 12.0798 9.92922 12.0798 9.70278C12.0798 8.10678 13.3737 6.81287 14.9703 6.81287C15.8014 6.81287 16.5522 7.16348 17.0791 7.72539C17.737 7.596 18.3563 7.35548 18.9146 7.0247C18.6991 7.69878 18.2405 8.26539 17.6431 8.6233C18.2285 8.55235 18.7847 8.39791 19.3038 8.16783C18.9167 8.74748 18.4268 9.25722 17.8628 9.6647Z" fill="#707070"/>
</svg>
